<svg width="48" height="48" viewBox="12 6 48 48" fill="none" xmlns="http://www.w3.org/2000/svg">
<g filter="url(#filter0_d_0_1704)">
<circle cx="36" cy="30" r="24" fill="white"/>
</g>
<path fill-rule="evenodd" clip-rule="evenodd" d="M40.9268 30.3763C40.8779 30.4967 40.8047 30.6095 40.7071 30.7071C40.7071 30.7071 40.7071 30.7071 40.7071 30.7071L34.7071 36.7071C34.3166 37.0976 33.6834 37.0976 33.2929 36.7071C32.9023 36.3166 32.9023 35.6834 33.2929 35.2929L38.5858 30L33.2928 24.7071C32.9023 24.3166 32.9023 23.6834 33.2928 23.2929C33.6834 22.9024 34.3165 22.9024 34.707 23.2929L40.7071 29.2929C41 29.5858 41.0732 30.0151 40.9268 30.3763Z" fill="#151D51"/>
<defs>
<filter id="filter0_d_0_1704" x="0" y="0" width="48" height="48" filterUnits="userSpaceOnUse" color-interpolation-filters="sRGB">
<feFlood flood-opacity="0" result="BackgroundImageFix"/>
<feColorMatrix in="SourceAlpha" type="matrix" values="0 0 0 0 0 0 0 0 0 0 0 0 0 0 0 0 0 0 127 0" result="hardAlpha"/>
<feOffset dy="6"/>
<feGaussianBlur stdDeviation="6"/>
<feComposite in2="hardAlpha" operator="out"/>
<feColorMatrix type="matrix" values="0 0 0 0 0 0 0 0 0 0 0 0 0 0 0 0 0 0 0.1 0"/>
<feBlend mode="normal" in2="BackgroundImageFix" result="effect1_dropShadow_0_1704"/>
<feBlend mode="normal" in="SourceGraphic" in2="effect1_dropShadow_0_1704" result="shape"/>
</filter>
</defs>
</svg>
