<svg width="48" height="48" viewBox="12 6 48 48" fill="none" xmlns="http://www.w3.org/2000/svg">
<g filter="url(#filter0_d_0_1707)">
<circle cx="24" cy="24" r="24" transform="matrix(-1 0 0 1 60 6)" fill="white"/>
</g>
<path fill-rule="evenodd" clip-rule="evenodd" d="M31.0732 30.3763C31.1221 30.4967 31.1953 30.6095 31.2929 30.7071C31.2929 30.7071 31.2929 30.7071 31.2929 30.7071L37.2929 36.7071C37.6834 37.0976 38.3166 37.0976 38.7071 36.7071C39.0977 36.3166 39.0977 35.6834 38.7071 35.2929L33.4142 30L38.7048 24.7071C39.0977 24.3166 39.0977 23.6834 38.7048 23.2929C38.3166 22.9024 37.6835 22.9024 37.293 23.2929L31.2929 29.2929C31 29.5858 30.9268 30.0151 31.0732 30.3763Z" fill="#151D51"/>
<defs>
<filter id="filter0_d_0_1707" x="0" y="0" width="48" height="48" filterUnits="userSpaceOnUse" color-interpolation-filters="sRGB">
<feFlood flood-opacity="0" result="BackgroundImageFix"/>
<feColorMatrix in="SourceAlpha" type="matrix" values="0 0 0 0 0 0 0 0 0 0 0 0 0 0 0 0 0 0 127 0" result="hardAlpha"/>
<feOffset dy="6"/>
<feGaussianBlur stdDeviation="6"/>
<feComposite in2="hardAlpha" operator="out"/>
<feColorMatrix type="matrix" values="0 0 0 0 0 0 0 0 0 0 0 0 0 0 0 0 0 0 0.1 0"/>
<feBlend mode="normal" in2="BackgroundImageFix" result="effect1_dropShadow_0_1707"/>
<feBlend mode="normal" in="SourceGraphic" in2="effect1_dropShadow_0_1707" result="shape"/>
</filter>
</defs>
</svg>
