<svg width="154" height="71" viewBox="0 0 154 71" fill="none" xmlns="http://www.w3.org/2000/svg">
<path d="M46.9153 49.12L55.7953 43.2C58.6753 41.28 64.5953 37.28 64.5953 28.64C64.5953 19.52 57.9553 13.92 47.7953 13.92C34.9153 13.92 28.7553 22.88 28.4353 30.64H39.1553C39.3953 26.8 42.0353 22.64 47.2353 22.64C51.1553 22.64 53.9553 25.28 53.9553 28.96C53.9553 33.04 50.4353 35.44 47.3953 37.52L39.1553 42.96C32.8353 47.12 28.3553 53.76 28.3553 62.56V66H64.4353V57.36H40.5953C41.2353 53.92 43.3953 51.52 46.9153 49.12Z" fill="#483FDD"/>
<path d="M22.4533 33.8805C22.4533 29.5965 19.9753 27.3285 15.6913 25.7325L12.8353 24.6825C10.1893 23.7165 8.88734 22.8345 8.88734 21.1125C8.88734 19.4325 10.4833 18.2985 12.6673 18.2985C15.3133 18.2985 16.7413 19.6005 16.9933 21.7005H22.1593C22.0753 17.5845 19.3453 14.6025 14.8933 13.8885V10.3605H10.5253V13.8885C6.28334 14.5605 3.21734 17.2065 3.21734 21.4065C3.21734 25.3545 5.86334 27.4125 9.39134 28.7145L12.4573 29.8485C15.3973 30.8985 16.7833 32.1165 16.7833 33.9645C16.7833 35.9805 14.8933 36.8625 12.7513 36.8625C9.85334 36.8625 8.21534 35.3925 7.96334 32.6625H2.46134C2.62934 37.4085 5.48534 40.6005 10.5253 41.3145V44.8005H14.8933V41.2725C19.0933 40.6845 22.4533 38.2905 22.4533 33.8805Z" fill="#483FDD"/>
<path d="M75.7093 13.4205C72.4933 13.4205 70.1173 15.3885 70.1173 18.5565C70.1173 21.4845 72.2053 23.5005 74.9173 23.5005C75.4453 23.5005 75.9733 23.4285 76.4533 23.2845L72.2053 29.0205H75.9973L79.3093 24.1485C80.2213 22.8045 81.3013 21.0525 81.3013 18.7965C81.3013 15.5325 79.0453 13.4205 75.7093 13.4205ZM75.6613 21.2205C74.1013 21.2205 73.1653 20.0925 73.1653 18.6045C73.1653 17.0925 74.1253 15.9165 75.6853 15.9165C77.2213 15.9165 78.1813 17.0925 78.1813 18.6045C78.1813 20.0925 77.2453 21.2205 75.6613 21.2205ZM88.2708 13.4205C85.0548 13.4205 82.6788 15.3885 82.6788 18.5565C82.6788 21.4845 84.7668 23.5005 87.4788 23.5005C88.0068 23.5005 88.5348 23.4285 89.0148 23.2845L84.7668 29.0205H88.5588L91.8708 24.1485C92.7828 22.8045 93.8628 21.0525 93.8628 18.7965C93.8628 15.5325 91.6068 13.4205 88.2708 13.4205ZM88.2228 21.2205C86.6628 21.2205 85.7268 20.0925 85.7268 18.6045C85.7268 17.0925 86.6868 15.9165 88.2468 15.9165C89.7828 15.9165 90.7428 17.0925 90.7428 18.6045C90.7428 20.0925 89.8068 21.2205 88.2228 21.2205Z" fill="#483FDD"/>
<path opacity="0.3" d="M85.255 47.0215H82.351L73.999 66.2215H76.927L85.255 47.0215ZM85.9921 49.6615V52.2535H92.6641V52.3975C90.5281 55.1815 88.6321 58.8775 88.1521 65.0215H91.3681C91.7761 59.0215 94.2001 54.6775 96.9601 51.5095V49.6615H85.9921ZM113.222 47.9815V54.1495C112.574 53.4295 111.374 52.7815 109.742 52.7815C106.598 52.7815 104.102 55.0855 104.102 58.9975C104.102 62.8135 106.526 65.2615 109.742 65.2615C111.614 65.2615 112.742 64.3735 113.318 63.6055H113.534L113.798 65.0215H116.294V47.9815H113.222ZM110.222 62.5975C108.398 62.5975 107.174 61.1575 107.174 58.9975C107.174 56.8855 108.398 55.4455 110.222 55.4455C112.046 55.4455 113.222 56.8855 113.222 58.9975C113.222 61.1575 112.046 62.5975 110.222 62.5975ZM129.611 62.7175C129.035 62.7175 128.747 62.4295 128.747 61.8055V57.4135C128.747 54.1975 126.467 52.7815 123.659 52.7815C120.587 52.7815 118.667 54.5335 118.427 57.0295H121.499C121.691 55.9495 122.363 55.2295 123.659 55.2295C124.835 55.2295 125.675 55.8775 125.675 57.1975V57.7015L121.931 58.0855C119.723 58.3015 117.971 59.4295 117.971 61.7335C117.971 64.1095 119.771 65.2615 122.219 65.2615C124.115 65.2615 125.363 64.6135 126.179 63.5815C126.587 64.6855 127.475 65.0215 128.603 65.0215H129.899V62.7175H129.611ZM125.675 60.3895C125.675 62.2855 124.043 62.9095 122.747 62.9095C121.787 62.9095 121.043 62.5735 121.043 61.6135C121.043 60.6775 121.883 60.2215 122.987 60.1015L125.675 59.8135V60.3895ZM132.637 70.0615C136.141 70.0615 137.077 67.5655 137.437 66.5095L142.285 53.0215H139.117L136.069 61.8775H135.877L132.613 53.0215H129.445L134.029 65.0215H134.989L134.581 66.0535C134.101 67.2535 133.069 67.6615 131.941 67.6615C131.581 67.6615 131.149 67.6135 130.693 67.5175V69.7975C131.245 69.9415 131.845 70.0615 132.637 70.0615ZM147.84 65.2615C150.384 65.2615 152.496 64.1575 152.496 61.6855C152.496 59.4295 151.008 58.4695 148.92 57.9415L147.792 57.6535C146.64 57.3415 145.824 57.1255 145.824 56.2855C145.824 55.5175 146.472 55.0615 147.408 55.0615C148.536 55.0615 149.208 55.5895 149.328 56.4535H152.28C152.112 54.4855 150.624 52.7815 147.384 52.7815C145.008 52.7815 142.896 54.0535 142.896 56.4535C142.896 58.8055 144.72 59.4535 146.328 59.8375L147.456 60.1255C148.752 60.4615 149.568 60.8455 149.568 61.7575C149.568 62.6215 148.752 62.9815 147.816 62.9815C146.592 62.9815 145.632 62.4775 145.464 61.1815H142.512C142.68 63.6535 144.456 65.2615 147.84 65.2615Z" fill="#6C96CE"/>
</svg>
