<svg width="24" height="24" viewBox="0 0 24 24" fill="none" xmlns="http://www.w3.org/2000/svg">
<g id="Network">
<mask id="mask0_271_169" style="mask-type:alpha" maskUnits="userSpaceOnUse" x="0" y="-1" width="24" height="25">
<path id="Clip 2" fill-rule="evenodd" clip-rule="evenodd" d="M24 -0.00439453H0V23.9956H24V-0.00439453Z" fill="white"/>
</mask>
<g mask="url(#mask0_271_169)">
<path id="Fill 1" fill-rule="evenodd" clip-rule="evenodd" d="M12 23.9956C18.6274 23.9956 24 18.623 24 11.9956C24 5.36814 18.6274 -0.00439453 12 -0.00439453C5.3726 -0.00439453 0 5.36814 0 11.9956C0 18.623 5.3726 23.9956 12 23.9956Z" fill="#483FDD"/>
<path id="Fill 35" fill-rule="evenodd" clip-rule="evenodd" d="M11.995 8.83561C10.3823 8.83561 9.07495 7.52821 9.07495 5.91554C9.07495 4.30286 10.3823 2.99561 11.995 2.99561C13.6076 2.99561 14.915 4.30286 14.915 5.91554C14.915 7.52821 13.6076 8.83561 11.995 8.83561Z" fill="#5CD6C0"/>
<g id="Group 1327224981">
<path id="Fill 29" fill-rule="evenodd" clip-rule="evenodd" d="M4.7251 11.7522C4.67948 11.7522 4.63305 11.7483 4.58648 11.7401C4.17881 11.668 3.90976 11.2965 3.98583 10.9102C4.31579 9.23357 5.25241 7.69352 6.62306 6.57364C6.93718 6.31699 7.4115 6.3501 7.68246 6.64763C7.95342 6.94516 7.91846 7.39444 7.60434 7.65109C6.491 8.56076 5.73042 9.81091 5.4626 11.171C5.39527 11.5133 5.07978 11.7522 4.7251 11.7522Z" fill="white"/>
<path id="Fill 31" fill-rule="evenodd" clip-rule="evenodd" d="M19.2906 11.7522C18.9492 11.7522 18.6432 11.5196 18.5711 11.1814C18.2778 9.80553 17.5077 8.55848 16.4024 7.66959C16.0891 7.41758 16.045 6.96604 16.3036 6.66115C16.5625 6.35599 17.026 6.31301 17.3393 6.5649C18.7016 7.66048 19.6506 9.19653 20.0116 10.8902C20.0941 11.2775 19.8387 11.6568 19.4409 11.7371C19.3905 11.7473 19.3402 11.7522 19.2906 11.7522Z" fill="white"/>
<path id="Fill 33" fill-rule="evenodd" clip-rule="evenodd" d="M11.7591 20.0226C10.9259 20.0226 10.0915 19.8667 9.29619 19.5545C8.93767 19.4138 8.7504 18.979 8.87792 18.5834C9.00532 18.1878 9.39941 17.9811 9.75779 18.1218C11.0512 18.6292 12.4705 18.629 13.7542 18.1214C14.1121 17.9799 14.5068 18.1853 14.6352 18.5806C14.7635 18.976 14.5772 19.4112 14.2191 19.5529C13.4271 19.866 12.5937 20.0226 11.7591 20.0226Z" fill="white"/>
<path id="Fill 37" fill-rule="evenodd" clip-rule="evenodd" d="M18.081 18.5629C16.469 18.5629 15.1621 17.256 15.1621 15.6441C15.1621 14.032 16.469 12.7251 18.081 12.7251C19.6931 12.7251 20.9999 14.032 20.9999 15.6441C20.9999 17.256 19.6931 18.5629 18.081 18.5629Z" fill="#5CD6C0"/>
<path id="Fill 39" fill-rule="evenodd" clip-rule="evenodd" d="M5.91892 18.5629C4.30687 18.5629 3 17.256 3 15.6441C3 14.032 4.30687 12.7251 5.91892 12.7251C7.53097 12.7251 8.83784 14.032 8.83784 15.6441C8.83784 17.256 7.53097 18.5629 5.91892 18.5629Z" fill="#5CD6C0"/>
</g>
</g>
</g>
</svg>
